<svg xmlns="http://www.w3.org/2000/svg" width="860" height="360" viewBox="0 0 860 360" font-family="'Courier New',monospace" role="img" aria-label="MinecrafTeX repository visits over time">
<rect width="860" height="360" rx="10" fill="#0f1117"/>
<rect x="56" y="64" width="780" height="240" fill="#171b24"/>
<text x="56" y="30" fill="#c9d4e3" font-size="20" font-weight="bold">MinecrafTeX — Repository Visits</text>
<text x="56" y="50" fill="#7e8aa0" font-size="13">daily page views &#183; total 222 views / 93 unique visitors</text>
<line x1="56" y1="304.0" x2="836" y2="304.0" stroke="#2b3242" stroke-width="1"/>
<text x="48" y="308.0" fill="#7e8aa0" font-size="11" text-anchor="end">0</text>
<line x1="56" y1="244.0" x2="836" y2="244.0" stroke="#2b3242" stroke-width="1"/>
<text x="48" y="248.0" fill="#7e8aa0" font-size="11" text-anchor="end">15</text>
<line x1="56" y1="184.0" x2="836" y2="184.0" stroke="#2b3242" stroke-width="1"/>
<text x="48" y="188.0" fill="#7e8aa0" font-size="11" text-anchor="end">30</text>
<line x1="56" y1="124.0" x2="836" y2="124.0" stroke="#2b3242" stroke-width="1"/>
<text x="48" y="128.0" fill="#7e8aa0" font-size="11" text-anchor="end">45</text>
<line x1="56" y1="64.0" x2="836" y2="64.0" stroke="#2b3242" stroke-width="1"/>
<text x="48" y="68.0" fill="#7e8aa0" font-size="11" text-anchor="end">60</text>
<text x="56.0" y="324.0" fill="#7e8aa0" font-size="11" text-anchor="middle">Jun 16</text>
<text x="167.4" y="324.0" fill="#7e8aa0" font-size="11" text-anchor="middle">Jun 17</text>
<text x="278.9" y="324.0" fill="#7e8aa0" font-size="11" text-anchor="middle">Jun 18</text>
<text x="390.3" y="324.0" fill="#7e8aa0" font-size="11" text-anchor="middle">Jun 19</text>
<text x="501.7" y="324.0" fill="#7e8aa0" font-size="11" text-anchor="middle">Jun 20</text>
<text x="613.1" y="324.0" fill="#7e8aa0" font-size="11" text-anchor="middle">Jun 21</text>
<text x="724.6" y="324.0" fill="#7e8aa0" font-size="11" text-anchor="middle">Jun 22</text>
<text x="836.0" y="324.0" fill="#7e8aa0" font-size="11" text-anchor="middle">Jun 23</text>
<path d="M56.0,304.0 L56.0,256.0 L167.4,220.0 L278.9,232.0 L390.3,168.0 L501.7,188.0 L613.1,244.0 L724.6,140.0 L836.0,96.0 L836.0,304.0 Z" fill="#7dB84a" fill-opacity="0.16"/>
<path d="M56.0,284.0 L167.4,268.0 L278.9,272.0 L390.3,248.0 L501.7,256.0 L613.1,276.0 L724.6,236.0 L836.0,220.0" fill="none" stroke="#5d9c3c" stroke-width="2" stroke-dasharray="4 4" stroke-linejoin="miter" stroke-linecap="square"/>
<path d="M56.0,256.0 L167.4,220.0 L278.9,232.0 L390.3,168.0 L501.7,188.0 L613.1,244.0 L724.6,140.0 L836.0,96.0" fill="none" stroke="#7dB84a" stroke-width="3" stroke-linejoin="miter" stroke-linecap="square"/>
<rect x="53.0" y="253.0" width="6" height="6" fill="#7dB84a"/>
<rect x="164.4" y="217.0" width="6" height="6" fill="#7dB84a"/>
<rect x="275.9" y="229.0" width="6" height="6" fill="#7dB84a"/>
<rect x="387.3" y="165.0" width="6" height="6" fill="#7dB84a"/>
<rect x="498.7" y="185.0" width="6" height="6" fill="#7dB84a"/>
<rect x="610.1" y="241.0" width="6" height="6" fill="#7dB84a"/>
<rect x="721.6" y="137.0" width="6" height="6" fill="#7dB84a"/>
<rect x="833.0" y="93.0" width="6" height="6" fill="#7dB84a"/>
<rect x="616" y="69" width="14" height="6" fill="#7dB84a"/>
<text x="636" y="78" fill="#c9d4e3" font-size="12">views</text>
<rect x="706" y="69" width="14" height="6" fill="#5d9c3c"/>
<text x="726" y="78" fill="#c9d4e3" font-size="12">unique</text>
<text x="836" y="346" fill="#7e8aa0" font-size="10" text-anchor="end">updated 2026-06-18</text>
</svg>